<svg width="46" height="35" viewBox="0 0 46 35" fill="none" xmlns="http://www.w3.org/2000/svg">
<path d="M11.8711 0C12.3459 1.15879e-05 12.7967 0.210227 13.1016 0.574219L14.249 1.94531C14.5539 2.30927 15.0047 2.51948 15.4795 2.51953H40.6514C43.6052 2.51968 45.9997 4.91441 46 7.86816V29.2637C46 32.2177 43.6053 34.6122 40.6514 34.6123H5.34863C2.39467 34.6122 0 32.2177 0 29.2637V7.86816C0.000241159 5.30657 1.80128 3.16595 4.20605 2.64258C4.60392 2.55597 4.9816 2.37467 5.25098 2.06934L6.59766 0.542969C6.90227 0.19768 7.34131 0 7.80176 0H11.8711ZM7.00098 25.4902L10.168 26.3086V26.3467L6.99805 27.1689L6.99707 27.7012L10.1641 28.5342V28.5723L6.99512 29.3799L6.99414 29.8584L10.8857 28.8018L10.8867 28.3154L7.78809 27.4521V27.4209L10.8896 26.5684L10.8906 26.082L7.00195 25.0117L7.00098 25.4902ZM26.7441 8.40332C20.8364 8.40357 16.0473 13.1929 16.0469 19.1006L16.0605 19.6514C16.3378 25.1215 20.7242 29.508 26.1943 29.7852L26.7441 29.7988C32.4675 29.7986 37.1422 25.3036 37.4287 19.6514L37.4424 19.1006C37.442 13.3775 32.9469 8.70361 27.2949 8.41699L26.7441 8.40332ZM26.7441 10.543C31.4703 10.5432 35.3023 14.3745 35.3027 19.1006C35.3027 23.827 31.4705 27.659 26.7441 27.6592C22.0179 27.6589 18.1866 23.8269 18.1865 19.1006C18.1869 14.3745 22.0181 10.5432 26.7441 10.543ZM7.18652 23.9385C7.10304 23.9383 7.03126 23.9701 6.97168 24.0332C6.91215 24.0951 6.88206 24.1696 6.88184 24.2568C6.88169 24.3442 6.91129 24.42 6.9707 24.4834C7.03 24.5454 7.10122 24.5769 7.18457 24.5771C7.268 24.5773 7.33986 24.5461 7.39941 24.4844C7.45904 24.4212 7.48911 24.3452 7.48926 24.2578C7.48931 24.1706 7.45968 24.0962 7.40039 24.0342C7.34109 23.9709 7.2699 23.9387 7.18652 23.9385ZM7.97559 24.4873L10.8926 24.4922L10.8936 24.0439L7.97559 24.0391V24.4873ZM7.00488 23.2158L10.8945 23.2227L10.8955 22.7744L7.00586 22.7676L7.00488 23.2158ZM7.00684 21.9463L10.8975 21.9531V21.5049L7.00781 21.498L7.00684 21.9463ZM7.19238 20.1309C7.10881 20.1307 7.03716 20.1624 6.97754 20.2256C6.91804 20.2875 6.88786 20.362 6.8877 20.4492C6.88755 20.5366 6.91715 20.6124 6.97656 20.6758C7.03597 20.7379 7.10784 20.7684 7.19141 20.7686C7.27494 20.7687 7.34665 20.7377 7.40625 20.6758C7.46569 20.6126 7.49595 20.5374 7.49609 20.4502C7.49621 20.3629 7.46661 20.2877 7.40723 20.2256C7.34783 20.1622 7.27593 20.131 7.19238 20.1309ZM7.98145 20.6787L10.8994 20.6836L10.9004 20.2354L7.98242 20.2305L7.98145 20.6787ZM8.98242 17.2158C8.75082 17.2155 8.56583 17.2534 8.42773 17.3291C8.28972 17.4048 8.18669 17.5002 8.11816 17.6152C8.04964 17.729 8.00417 17.847 7.98242 17.9697C7.95943 18.0913 7.94742 18.1993 7.94727 18.293C7.94704 18.4398 7.96756 18.5892 8.00781 18.7412C8.0468 18.8919 8.11608 19.0312 8.21582 19.1592C8.31438 19.286 8.45273 19.3876 8.62988 19.4639L8.78223 19.0391C8.676 18.9895 8.57588 18.9038 8.48242 18.7822C8.38892 18.6605 8.34242 18.4923 8.34277 18.2783C8.34312 18.0721 8.39523 17.9185 8.49902 17.8174C8.60303 17.715 8.74911 17.6638 8.93652 17.6641H8.95117C9.02335 17.6642 9.07448 17.6902 9.10352 17.7422C9.1325 17.7929 9.15355 17.874 9.16602 17.9854C9.17722 18.0954 9.19337 18.239 9.21582 18.416C9.23332 18.5515 9.25792 18.687 9.28809 18.8213C9.31699 18.9542 9.36061 19.0763 9.41992 19.1865C9.47924 19.2967 9.56208 19.3842 9.66699 19.4502C9.7707 19.5162 9.90616 19.5495 10.0732 19.5498C10.263 19.5501 10.4253 19.5063 10.5596 19.418C10.6926 19.3296 10.7951 19.2101 10.8662 19.0596C10.936 18.9091 10.9703 18.7413 10.9707 18.5566C10.971 18.387 10.946 18.2428 10.8955 18.125C10.8451 18.0072 10.784 17.9128 10.7119 17.8418C10.6399 17.7708 10.5721 17.7199 10.5088 17.6895V17.666L10.9043 17.667L10.9053 17.2188L8.98242 17.2158ZM9.84766 17.665C9.96913 17.6652 10.0853 17.6973 10.1953 17.7607C10.3054 17.823 10.3954 17.9161 10.4648 18.0391C10.5342 18.1607 10.5687 18.3102 10.5684 18.4873C10.568 18.6658 10.5289 18.8134 10.4502 18.9297C10.3703 19.0447 10.2523 19.1018 10.0967 19.1016C9.98271 19.1014 9.89289 19.0707 9.82715 19.0098C9.76015 18.9476 9.70951 18.8667 9.67676 18.7666C9.64278 18.6653 9.6185 18.5559 9.60352 18.4395C9.59728 18.3914 9.58976 18.3289 9.58105 18.252C9.57106 18.1735 9.56036 18.093 9.54785 18.0107C9.53406 17.9271 9.51762 17.8534 9.5 17.79C9.48113 17.7255 9.46024 17.6841 9.4375 17.665H9.84766ZM8.95996 12.5684C8.61707 12.5678 8.36451 12.6501 8.20215 12.8154C8.03859 12.981 7.95656 13.1944 7.95605 13.4551C7.95571 13.664 8.00019 13.8436 8.08984 13.9932C8.17823 14.1427 8.29771 14.2551 8.44824 14.3301V14.3604C8.29237 14.4323 8.17128 14.5331 8.08496 14.6621C7.99743 14.7898 7.95344 14.9502 7.95312 15.1426C7.95288 15.3323 7.99593 15.4953 8.08301 15.6309C8.16888 15.7664 8.28975 15.8648 8.44531 15.9258V15.9639L7.98926 15.9629L7.98828 16.3955L10.9062 16.4004L10.9072 15.9521L9.08398 15.9492C8.94097 15.949 8.81481 15.9183 8.70605 15.8574C8.59613 15.7953 8.51011 15.7142 8.44824 15.6143C8.38636 15.5129 8.35528 15.4036 8.35547 15.2871C8.35576 15.1174 8.40702 14.9786 8.50977 14.8711C8.61123 14.7637 8.74532 14.7107 8.91113 14.7109L10.9092 14.7139L10.9102 14.2578L9.01074 14.2549C8.82206 14.2546 8.66561 14.1979 8.54297 14.085C8.41935 13.9721 8.35813 13.8132 8.3584 13.6084C8.35866 13.449 8.40456 13.3099 8.49707 13.1924C8.58966 13.0748 8.74387 13.0163 8.95898 13.0166L10.9121 13.0195L10.9131 12.5713L8.95996 12.5684ZM9.86523 7.54883C9.68289 7.54853 9.52881 7.58565 9.40332 7.66016C9.27786 7.73465 9.17468 7.82925 9.09473 7.94434C9.01358 8.05809 8.94937 8.17754 8.90234 8.30273C8.85531 8.42669 8.81875 8.53941 8.79199 8.64062L8.68457 9.03613C8.66547 9.10815 8.64081 9.18758 8.61035 9.27344C8.57859 9.3593 8.53838 9.44126 8.49023 9.51953C8.44074 9.59792 8.37915 9.66237 8.30566 9.71289C8.23096 9.76209 8.14177 9.78722 8.03809 9.78711C7.91399 9.7869 7.80246 9.75076 7.70508 9.67969C7.60786 9.60737 7.532 9.50674 7.47656 9.37891C7.42112 9.2497 7.39327 9.09887 7.39355 8.92676C7.394 8.69146 7.44719 8.49285 7.55371 8.33105C7.66035 8.16915 7.81042 8.07716 8.00293 8.05469V7.59863C7.80682 7.60472 7.63113 7.66538 7.47656 7.78027C7.32205 7.89396 7.20022 8.04845 7.11133 8.24316C7.0212 8.43792 6.97602 8.66058 6.97559 8.91113C6.97517 9.15933 7.02049 9.38445 7.11133 9.58594C7.2009 9.78606 7.32714 9.94617 7.49023 10.0654C7.65204 10.1833 7.84193 10.2418 8.05957 10.2422C8.32169 10.2426 8.53391 10.1546 8.69629 9.97754C8.85864 9.80055 8.98439 9.56054 9.07227 9.25684L9.20898 8.77832C9.2472 8.64162 9.29193 8.51417 9.34277 8.39648C9.39359 8.27889 9.45993 8.18433 9.54102 8.1123C9.62216 8.04028 9.72733 8.00371 9.85645 8.00391C9.99815 8.00414 10.1223 8.04627 10.2285 8.12988C10.3334 8.21361 10.4153 8.32757 10.4746 8.4707C10.5326 8.61386 10.5618 8.77531 10.5615 8.95508C10.5613 9.10944 10.5379 9.25364 10.4922 9.3877C10.4451 9.52058 10.3744 9.63153 10.2793 9.71875C10.1829 9.80461 10.0609 9.8538 9.91406 9.86621L9.91309 10.3525C10.1257 10.3377 10.3127 10.2721 10.4736 10.1572C10.6345 10.0411 10.7604 9.88195 10.8506 9.67969C10.9408 9.476 10.9868 9.23458 10.9873 8.95605C10.9878 8.65728 10.9375 8.40341 10.8379 8.19434C10.7382 7.98403 10.604 7.82402 10.4346 7.71484C10.2652 7.60445 10.0753 7.54923 9.86523 7.54883ZM36.9072 5.19434C36.0211 5.19437 35.3029 5.91277 35.3027 6.79883V8.40332C35.3028 9.28949 36.0211 10.0078 36.9072 10.0078H40.6514C41.5374 10.0077 42.2558 9.28942 42.2559 8.40332V6.79883C42.2557 5.91283 41.5374 5.19448 40.6514 5.19434H36.9072Z" fill="white"/>
</svg>
