<svg width="35" height="35" viewBox="0 0 35 35" fill="none" xmlns="http://www.w3.org/2000/svg">
<g clip-path="url(#clip0_10_686)">
<path d="M25.5261 0H9.47418C4.25003 0 0 4.25002 0 9.47416V25.5258C0 30.7499 4.25003 34.9999 9.47418 34.9999H25.5261C30.75 34.9999 35 30.7499 35 25.5258V9.47416C35 4.25002 30.75 0 25.5261 0ZM32.9482 25.5258C32.9482 29.6185 29.6186 32.9481 25.5261 32.9481H9.47418C5.38143 32.9481 2.05185 29.6185 2.05185 25.5258V9.47416C2.05185 5.38142 5.38143 2.05185 9.47418 2.05185H25.5261C29.6186 2.05185 32.9482 5.38142 32.9482 9.47416V25.5258Z" fill="white" fill-opacity="0.8"/>
<path d="M14.9811 16.9719C16.1048 16.4827 16.6672 15.4314 16.6672 13.818C16.6672 11.4909 15.3382 10.3271 12.6802 10.3271H8.85204C8.54762 10.3271 8.28326 10.3998 8.05869 10.5453C7.83359 10.6908 7.72144 10.8892 7.72144 11.1402V24.0329C7.72144 24.2447 7.82718 24.4297 8.03893 24.5883C8.25015 24.7469 8.52145 24.8263 8.85204 24.8263H13.0572C14.2735 24.8263 15.2388 24.4925 15.9531 23.8246C16.6672 23.1571 17.0242 22.0892 17.0242 20.6214V20.2048C17.0242 19.2793 16.852 18.5751 16.5083 18.0923C16.1644 17.6098 15.6554 17.2365 14.9811 16.9719ZM10.2801 12.5883H12.4818C12.9843 12.5883 13.3776 12.7371 13.662 13.0345C13.9461 13.332 14.0885 13.7387 14.0885 14.2543C14.0885 14.7833 13.9528 15.1999 13.6818 15.504C13.4108 15.8082 13.0174 15.9601 12.5018 15.9601H10.2801V12.5883ZM14.4455 20.4032C14.4455 21.8446 13.8041 22.5653 12.5215 22.5653H10.2801V17.9834H12.5215C13.1563 17.9834 13.6353 18.1489 13.9595 18.4793C14.2834 18.8098 14.4455 19.3455 14.4455 20.086V20.4032Z" fill="white" fill-opacity="0.8"/>
<path d="M26.0887 20.7798C26.3661 20.7798 26.591 20.7667 26.7629 20.7405C26.9346 20.7144 27.1232 20.6487 27.3282 20.544C27.5331 20.4393 27.6853 20.2591 27.7843 20.0038C27.8837 19.7485 27.9333 19.4246 27.9333 19.0315C27.9333 17.9557 27.5331 17.0622 26.7333 16.3516C25.933 15.6411 24.9709 15.2854 23.8473 15.2854C22.6438 15.2854 21.6189 15.6758 20.7727 16.4558C19.9265 17.236 19.5032 18.1685 19.5032 19.2526V20.9384C19.5032 22.1552 19.9497 23.1371 20.8421 23.884C21.7348 24.6311 22.8884 25.0047 24.3033 25.0047C25.2951 25.0047 26.1247 24.8231 26.7926 24.4592C27.4602 24.0957 27.7945 23.7286 27.7945 23.3582C27.7945 23.1203 27.7018 22.8722 27.5168 22.6145C27.3315 22.3566 27.1002 22.2276 26.8225 22.2276C26.6767 22.2276 26.3595 22.3536 25.8703 22.6046C25.3811 22.8559 24.8852 22.9814 24.3827 22.9814C23.6817 22.9814 23.1199 22.8063 22.6969 22.4559C22.2734 22.1056 22.0622 21.646 22.0622 21.0772V20.7798H26.0887ZM22.0622 18.7536C22.0622 18.3215 22.2339 17.9725 22.5778 17.7071C22.9215 17.4417 23.3247 17.3087 23.7877 17.3087C24.2766 17.3087 24.6903 17.4449 25.0275 17.7162C25.3645 17.988 25.5333 18.3402 25.5333 18.7723C25.5333 18.9699 25.49 19.1026 25.4043 19.1704C25.3181 19.2385 25.1693 19.2724 24.9581 19.2724H22.0622V18.7536Z" fill="white" fill-opacity="0.8"/>
<path d="M26.96 12.1587H20.5433C19.9767 12.1587 19.5172 12.6182 19.5172 13.1846C19.5172 13.7512 19.9767 14.2108 20.5433 14.2108H26.96C27.5267 14.2108 27.9862 13.7512 27.9862 13.1846C27.9862 12.6182 27.5267 12.1587 26.96 12.1587Z" fill="white" fill-opacity="0.8"/>
</g>
<defs>
<clipPath id="clip0_10_686">
<rect width="35" height="35" fill="white"/>
</clipPath>
</defs>
</svg>
