<svg width="35" height="35" viewBox="0 0 35 35" fill="none" xmlns="http://www.w3.org/2000/svg">
<g clip-path="url(#clip0_10_691)">
<path d="M19.863 34.9316H14.2471C13.3091 34.9316 12.546 34.1701 12.546 33.2339V20.5917H9.26957C8.33154 20.5917 7.56848 19.8298 7.56848 18.8939V13.4767C7.56848 12.5405 8.33154 11.7789 9.26957 11.7789H12.546V9.06616C12.546 6.37638 13.3923 4.08794 14.993 2.44865C16.601 0.801888 18.8482 -0.0683594 21.4916 -0.0683594L25.7745 -0.0614167C26.711 -0.0598145 27.4727 0.701752 27.4727 1.63635V6.66611C27.4727 7.60231 26.7099 8.36388 25.7721 8.36388L22.8885 8.36495C22.009 8.36495 21.7851 8.54092 21.7372 8.59486C21.6583 8.68431 21.5644 8.93719 21.5644 9.63547V11.7786H25.5554C25.8559 11.7786 26.147 11.8526 26.3971 11.992C26.9368 12.2929 27.2723 12.862 27.2723 13.4769L27.2702 18.8942C27.2702 19.8298 26.5071 20.5914 25.5691 20.5914H21.5644V33.2339C21.5644 34.1701 20.801 34.9316 19.863 34.9316ZM14.6019 32.8798H19.5082V19.6731C19.5082 19.048 20.0179 18.5395 20.644 18.5395H25.2143L25.2162 13.8308H20.6437C20.0176 13.8308 19.5082 13.3223 19.5082 12.6972V9.63547C19.5082 8.83385 19.5898 7.92221 20.1961 7.23702C20.9287 6.40869 22.0831 6.3131 22.8879 6.3131L25.4168 6.31203V1.9899L21.49 1.98349C17.2418 1.98349 14.6019 4.69757 14.6019 9.06616V12.6972C14.6019 13.3221 14.0925 13.8308 13.4664 13.8308H9.62435V18.5395H13.4664C14.0925 18.5395 14.6019 19.048 14.6019 19.6731V32.8798Z" fill="white" fill-opacity="0.8"/>
</g>
<defs>
<clipPath id="clip0_10_691">
<rect width="35" height="35" fill="white"/>
</clipPath>
</defs>
</svg>
